HIERARCHY
ROOT root
{
	OFFSET 0.000000 0.000000 0.000000
	CHANNELS 6 Xposition Yposition Zposition Zrotation Yrotation Xrotation
	JOINT lhip
	{
		OFFSET 0.058581 -0.082280 -0.017664
		CHANNELS 3 Zrotation Yrotation Xrotation
		JOINT lknee
		{
			OFFSET 0.043451 -0.386469 0.008037
			CHANNELS 3 Zrotation Yrotation Xrotation
			JOINT lankle
			{
				OFFSET -0.014790 -0.426874 -0.037428
				CHANNELS 3 Zrotation Yrotation Xrotation
				JOINT ltoe
				{
					OFFSET 0.041054 -0.060286 0.122042
					CHANNELS 3 Zrotation Yrotation Xrotation
					End Site
					{
						OFFSET 0.000000 0.000000 0.000000
					}
				}
			}
		}
	}
	JOINT rhip
	{
		OFFSET -0.060310 -0.090513 -0.013543
		CHANNELS 3 Zrotation Yrotation Xrotation
		JOINT rknee
		{
			OFFSET -0.043257 -0.383688 -0.004843
			CHANNELS 3 Zrotation Yrotation Xrotation
			JOINT rankle
			{
				OFFSET 0.019056 -0.420046 -0.034562
				CHANNELS 3 Zrotation Yrotation Xrotation
				JOINT rtoe
				{
					OFFSET -0.034840 -0.062106 0.130323
					CHANNELS 3 Zrotation Yrotation Xrotation
					End Site
					{
						OFFSET 0.000000 0.000000 0.000000
					}
				}
			}
		}
	}
	JOINT lowerback
	{
		OFFSET 0.004439 0.124404 -0.038385
		CHANNELS 3 Zrotation Yrotation Xrotation
		JOINT upperback
		{
			OFFSET 0.004488 0.137956 0.026820
			CHANNELS 3 Zrotation Yrotation Xrotation
			JOINT chest
			{
				OFFSET -0.002265 0.056032 0.002855
				CHANNELS 3 Zrotation Yrotation Xrotation
				JOINT lowerneck
				{
					OFFSET -0.013390 0.211636 -0.033468
					CHANNELS 3 Zrotation Yrotation Xrotation
					JOINT upperneck
					{
						OFFSET 0.010113 0.088937 0.050410
						CHANNELS 3 Zrotation Yrotation Xrotation
						End Site
						{
							OFFSET 0.000000 0.000000 0.000000
						}
					}
				}
				JOINT lclavicle
				{
					OFFSET 0.071702 0.114000 -0.018898
					CHANNELS 3 Zrotation Yrotation Xrotation
					JOINT lshoulder
					{
						OFFSET 0.122921 0.045205 -0.019046
						CHANNELS 3 Zrotation Yrotation Xrotation
						JOINT lelbow
						{
							OFFSET 0.255332 -0.015649 -0.022946
							CHANNELS 3 Zrotation Yrotation Xrotation
							JOINT lwrist
							{
								OFFSET 0.265709 0.012698 -0.007375
								CHANNELS 3 Zrotation Yrotation Xrotation
								End Site
								{
									OFFSET 0.000000 0.000000 0.000000
								}
							}
						}
					}
				}
				JOINT rclavicle
				{
					OFFSET -0.082954 0.112472 -0.023707
					CHANNELS 3 Zrotation Yrotation Xrotation
					JOINT rshoulder
					{
						OFFSET -0.113228 0.046853 -0.008472
						CHANNELS 3 Zrotation Yrotation Xrotation
						JOINT relbow
						{
							OFFSET -0.260127 -0.014369 -0.031269
							CHANNELS 3 Zrotation Yrotation Xrotation
							JOINT rwrist
							{
								OFFSET -0.269108 0.006794 -0.006027
								CHANNELS 3 Zrotation Yrotation Xrotation
								End Site
								{
									OFFSET 0.000000 0.000000 0.000000
								}
							}
						}
					}
				}
			}
		}
	}
}
MOTION
Frames: 13
Frame Time: 0.033333
2.352693 0.714050 0.990970 -87.846970 -1.172640 81.824399 -3.466312 0.225036 4.822159 0.494178 -8.756637 3.145559 1.765184 10.576708 -9.251355 0.000000 -0.000000 0.000000 1.311269 -2.245686 3.807332 -3.977351 -1.740085 6.639437 0.313811 -11.169979 -13.574003 0.000000 -0.000000 0.000000 -1.369632 1.824217 8.288693 -0.390845 -2.469487 5.799212 -1.181305 1.017541 -2.440738 0.305764 -1.355000 5.091092 3.698700 -0.832968 12.184036 -26.825587 -6.957603 2.036516 -53.742064 -9.270971 16.263912 -0.778227 -20.938439 8.618954 -4.661796 -3.168470 4.071566 24.344393 10.543837 2.450810 56.723193 5.604701 21.599684 0.771089 25.331324 12.797708 4.337919 3.865908 5.059940 
2.353487 0.714283 0.990968 -87.974877 -1.098792 81.901875 -3.310414 0.166374 4.587296 0.319550 -8.684474 3.340094 1.808427 10.688899 -9.225573 0.000000 -0.000000 0.000000 1.485816 -2.019963 3.612582 -4.045315 -1.725991 6.745744 0.213513 -11.237646 -13.361671 0.000000 -0.000000 0.000000 -1.271103 1.879971 8.394005 -0.419557 -2.445748 5.577935 -1.188587 1.043718 -2.381174 0.186783 -1.430466 5.245020 3.706870 -0.622005 12.061219 -26.815321 -6.901504 1.975848 -53.811238 -9.265597 16.494107 -0.638577 -20.886974 8.573100 -4.741876 -3.209027 4.017495 24.204061 10.497786 2.335377 56.870151 5.487846 21.805853 0.556070 25.500829 12.899799 4.767978 3.898155 4.692962 
2.353942 0.714288 0.991039 -88.027615 -1.128754 81.848666 -3.410321 0.184226 4.647587 0.431094 -8.739098 3.281263 1.847589 10.840060 -9.194033 0.000000 -0.000000 0.000000 1.485903 -1.923539 3.621624 -4.098080 -1.796107 6.798533 0.303650 -11.423760 -13.515293 0.000000 -0.000000 0.000000 -1.323278 1.877033 8.642842 -0.430725 -2.380633 5.385861 -1.159543 1.078772 -2.381582 0.088167 -1.515106 5.209767 3.734262 -0.614352 12.185828 -26.825722 -6.969042 1.950735 -53.794644 -9.201363 16.589735 -0.667708 -20.809121 8.684970 -4.974045 -3.098881 4.032909 24.142036 10.508463 2.333486 56.874382 5.315645 21.826667 0.445376 25.822639 12.865230 4.970715 3.865830 4.575527 
2.354224 0.714155 0.990983 -87.986383 -1.061662 81.861652 -3.297190 0.179186 4.471294 0.376729 -8.616031 3.557883 1.660289 10.941993 -9.592030 0.000000 -0.000000 0.000000 1.519692 -1.987502 3.589834 -4.065309 -1.762797 6.813491 0.460217 -11.459822 -13.871900 0.000000 -0.000000 0.000000 -1.280377 1.856739 8.625039 -0.436613 -2.450671 5.443856 -1.191490 1.095999 -2.391654 0.154805 -1.542219 5.161817 3.689263 -0.741673 12.097990 -26.662909 -6.919939 1.911219 -53.925673 -9.252513 16.572385 -0.563317 -20.869357 8.719201 -4.838046 -3.137582 3.969013 24.008939 10.601397 2.210816 57.095424 5.430003 21.883261 0.474645 25.396786 13.002523 4.900215 3.806709 4.495443 
2.354453 0.714225 0.991120 -88.035353 -1.003961 81.833240 -3.197073 0.208458 4.378474 0.301765 -8.684237 3.818391 1.390110 11.148036 -10.452754 0.000000 -0.000000 0.000000 1.588049 -1.928859 3.603621 -4.023295 -1.698016 6.818741 0.624789 -11.554161 -14.307812 0.000000 -0.000000 0.000000 -1.241851 1.935345 8.769414 -0.460642 -2.402646 5.233335 -1.159201 1.051484 -2.322093 0.204433 -1.598265 5.151225 3.724143 -0.711258 12.166361 -26.688289 -7.011585 2.005862 -53.868375 -9.231155 16.500765 -0.538187 -20.919791 8.717457 -4.805410 -3.153350 3.814723 24.035091 10.694759 2.317114 57.097000 5.423325 21.820537 0.373358 25.308308 12.975386 4.903694 3.933279 4.257798 
2.353932 0.713903 0.991130 -87.963649 -1.093084 81.790970 -3.295219 -0.004194 4.357357 0.145927 -8.940946 4.194321 1.367353 11.190933 -11.095589 0.000000 -0.000000 0.000000 1.444072 -1.992032 3.639603 -4.000978 -1.590959 6.952339 0.748125 -11.678836 -14.679645 0.000000 -0.000000 0.000000 -1.391780 1.949265 8.607605 -0.454708 -2.457171 5.439746 -1.179456 1.053088 -2.277836 0.316783 -1.585930 4.988715 3.672119 -0.802349 12.226818 -26.580809 -6.919568 1.867709 -53.907895 -9.282605 16.383481 -0.598358 -20.921275 8.619875 -4.799595 -3.073317 3.745594 24.007205 10.632649 2.214856 57.155664 5.458052 21.805261 0.443458 25.227751 13.074342 4.997926 3.928039 4.359020 
2.353412 0.713745 0.991113 -88.126910 -1.061610 81.775563 -3.122760 0.060841 4.275193 -0.148647 -8.876937 4.531541 1.286304 11.169137 -11.809164 0.000000 -0.000000 0.000000 1.465709 -1.978499 3.672020 -3.975140 -1.523610 6.990409 0.789736 -11.546600 -14.847431 0.000000 -0.000000 0.000000 -1.428963 2.056508 8.577502 -0.418929 -2.330399 5.333019 -1.143123 0.991929 -2.157827 0.353222 -1.566838 5.274374 3.696346 -0.948500 11.879604 -26.573281 -6.958822 1.954701 -53.824583 -9.174503 16.282547 -0.833717 -21.136766 8.643844 -4.780247 -2.778710 3.582280 23.937826 10.614116 2.237060 57.179092 5.435864 21.745345 0.479741 25.251885 13.194095 5.059964 3.799234 4.369837 
2.352860 0.713624 0.991126 -88.349694 -1.063261 81.753107 -3.185055 0.109835 4.509063 -0.069884 -8.962104 4.314236 1.238352 11.292123 -12.043292 0.000000 -0.000000 0.000000 1.470918 -1.919013 3.726380 -3.995042 -1.442509 7.002967 0.882698 -11.619413 -15.039677 0.000000 -0.000000 0.000000 -1.446839 2.104475 8.472259 -0.421786 -2.246433 5.480387 -1.174202 1.016357 -2.189206 0.368022 -1.673921 5.398887 3.737138 -1.108900 11.885256 -26.653659 -6.829586 1.887737 -53.810632 -9.144439 16.229832 -0.778757 -21.093547 8.697878 -4.935885 -2.613472 3.856266 23.976949 10.611865 2.224827 57.130675 5.431082 21.749497 0.556618 25.273050 13.285982 5.097404 3.810065 4.469086 
2.352091 0.713203 0.991175 -88.419385 -0.941557 81.859501 -3.094767 0.108435 4.443119 -0.061639 -9.055373 4.364970 1.384286 11.217162 -12.187095 0.000000 -0.000000 0.000000 1.575153 -2.007863 3.679821 -4.002261 -1.383621 6.973401 0.792570 -11.581976 -15.100838 0.000000 -0.000000 0.000000 -1.375687 2.123705 8.542400 -0.400345 -2.295601 5.332026 -1.169863 1.008252 -2.323172 0.272485 -1.710826 5.543154 3.848227 -1.126119 11.815717 -26.655514 -6.705948 1.810312 -53.934224 -8.926856 16.396236 -0.693104 -21.034763 8.786848 -4.862283 -2.730411 3.901756 23.982092 10.495562 2.169279 57.026193 5.111462 21.738045 0.593113 25.722280 13.283462 5.204896 3.820938 4.266598 
2.350654 0.712813 0.991210 -88.808022 -1.055255 81.976956 -3.240440 0.201742 4.450980 -0.106636 -8.986251 4.460746 1.307964 11.332888 -12.794017 0.000000 -0.000000 0.000000 1.460722 -1.770605 3.623124 -3.967996 -1.183946 6.975859 1.069828 -11.517671 -15.383491 0.000000 -0.000000 0.000000 -1.564714 2.210488 8.382211 -0.440787 -2.212548 5.208433 -1.199104 0.992267 -2.146625 0.301760 -1.750077 5.596435 3.996812 -1.408884 11.531842 -26.679406 -6.645144 1.850720 -53.923976 -8.870643 16.031467 -0.562675 -20.711184 8.147332 -5.892895 -2.260998 3.563936 24.266318 10.542735 2.313786 57.068738 5.203558 21.430129 -0.290354 25.799384 12.371608 5.699476 3.797596 4.352679 
2.348409 0.712116 0.991419 -88.817561 -0.833405 82.204907 -2.964164 0.062924 4.380603 -0.283095 -8.954225 4.496464 1.366221 11.285816 -13.501764 0.000000 -0.000000 0.000000 1.636767 -2.059656 3.685544 -3.912012 -1.006290 6.689605 1.320043 -11.382131 -15.787406 0.000000 -0.000000 0.000000 -1.512382 2.261553 7.849753 -0.278043 -2.392060 5.538986 -1.221889 1.083424 -2.094027 0.376930 -1.759488 5.643868 4.021122 -2.207542 10.820749 -26.398783 -6.272948 1.617193 -54.466921 -8.820879 15.665474 -0.236384 -20.745867 7.636992 -6.658325 -1.922014 3.515636 24.256422 10.141959 2.109913 57.452129 5.120569 20.719447 -2.108510 26.031221 10.838080 5.671163 3.557226 4.494167 
2.347365 0.711516 0.991647 -89.061794 -0.756470 82.359814 -2.917178 0.179322 4.242008 -0.286740 -8.764431 4.649635 1.648160 11.344327 -13.917281 0.000000 -0.000000 0.000000 1.790402 -1.975827 3.609796 -4.014625 -0.816340 6.645020 1.247030 -11.345766 -16.077061 0.000000 -0.000000 0.000000 -1.534431 2.416035 8.104910 -0.206272 -2.387378 5.351246 -1.193036 1.054861 -2.021762 0.433554 -2.292719 5.658611 4.195154 -2.931497 9.634172 -26.194183 -5.935865 1.497432 -54.772676 -8.636669 15.371380 0.476045 -21.468980 6.539967 -6.257427 -1.342709 3.107795 24.281546 9.778204 1.646622 57.886456 5.020633 19.748332 -4.590183 26.179896 7.931100 4.697637 3.360240 3.789637 
2.345020 0.710146 0.991956 -89.222513 -0.740385 82.538260 -3.082469 0.043490 4.238745 -0.203995 -8.605939 4.805101 2.023338 11.398873 -14.822911 0.000000 -0.000000 0.000000 1.692281 -2.063728 3.754768 -3.995040 -0.673148 6.349856 1.472497 -11.239742 -16.540604 0.000000 -0.000000 0.000000 -1.627336 2.580976 8.020406 -0.132593 -2.363028 5.168773 -1.123196 0.977665 -1.752122 0.509234 -3.198048 5.461722 4.276101 -4.135025 8.741060 -25.814451 -5.615888 1.449986 -55.240265 -8.541495 14.878185 1.165802 -21.926595 5.237586 -6.806009 -1.214066 2.096502 24.014165 9.355884 1.285230 58.460852 4.930695 18.379200 -7.434808 25.989617 4.079119 4.962968 3.193418 1.707204 
